# File created by Blade
# Date/Time:  Wed Jan 21 16:14:22 2015
#---------------------------------------------------------
:version 1.10
:name HOM
:units
  mass 1.0
  length 1.000000
  angle deg
:documentation
     Acclaim Skeleton File
:root
   axis xyz
   order TX TY TZ RX RY RZ
   position 0.000000 0.000000 0.000000
   orientation 0 0 0
:bonedata
   begin
      id 1
      name Spine_dum
      direction 0.000000 1.000000 0.000000
      length 7.067664
      axis 0.0 0.0 0.0 xyz
   end
   begin
      id 2
      name LeftUpLeg_dum
      direction 1.000000 0.000000 0.000000
      length 4.013002
      axis 0.0 0.0 0.0 xyz
   end
   begin
      id 3
      name RightUpLeg_dum
      direction -1.000000 0.000000 0.000000
      length 4.013002
      axis 0.0 0.0 0.0 xyz
   end
   begin
      id 4
      name Spine
      direction 0.000000 1.000000 0.000000
      length 0.000000
      axis 0.0 0.0 0.0 xyz
      dof rx ry rz
   end
   begin
      id 5
      name Spine_dum1
      direction 0.000000 1.000000 0.000000
      length 15.039886
      axis 0.0 0.0 0.0 xyz
   end
   begin
      id 6
      name Spine_dum2
      direction 0.000000 1.000000 0.000000
      length 10.530368
      axis 0.0 0.0 0.0 xyz
   end
   begin
      id 7
      name Spine_dum3
      direction 0.000000 1.000000 0.000000
      length 10.530368
      axis 0.0 0.0 0.0 xyz
   end
   begin
      id 8
      name Head
      direction 0.000000 1.000000 0.000000
      length 4.527550
      axis 0.0 0.0 0.0 xyz
      dof rx ry rz
   end
   begin
      id 9
      name LeftShoulder
      direction 1.000000 0.000000 0.000000
      length 7.028855
      axis 0.0 0.0 -90.0 xyz
      dof rx ry rz
   end
   begin
      id 10
      name LeftArm
      direction 1.000000 0.000000 0.000000
      length 10.797705
      axis 0.0 0.0 -90.0 xyz
      dof rx ry rz
   end
   begin
      id 11
      name LeftForeArm
      direction 1.000000 0.000000 0.000000
      length 7.907442
      axis 0.0 0.0 -90.0 xyz
      dof ry rz rx
   end
   begin
      id 12
      name LeftHand
      direction 0.000000 0.000000 0.000000
      length 0.000000
      axis 0.0 0.0 -90.0 xyz
      dof rx ry rz
   end
   begin
      id 13
      name LeftHand_dum1
      direction 0.000000 0.000000 0.000000
      length 0.000000
      axis 0.0 0.0 -90.0 xyz
   end
   begin
      id 14
      name LeftHand_dum2
      direction 1.000000 0.000000 0.000000
      length 3.937000
      axis 0.0 0.0 -90.0 xyz
   end
   begin
      id 15
      name LeftHandThumb1
      direction 0.000000 0.000000 1.000000
      length 3.937000
      axis 0.0 0.0 -90.0 xyz
      dof rx rz ry
   end
   begin
      id 16
      name RightShoulder
      direction -1.000000 0.000000 0.000000
      length 7.028855
      axis 0.0 0.0 90.0 xyz
      dof rx ry rz
   end
   begin
      id 17
      name RightArm
      direction -1.000000 0.000000 0.000000
      length 10.797705
      axis 0.0 0.0 90.0 xyz
      dof rx ry rz
   end
   begin
      id 18
      name RightForeArm
      direction -1.000000 0.000000 0.000000
      length 7.907442
      axis 0.0 0.0 90.0 xyz
      dof ry rz rx
   end
   begin
      id 19
      name RightHand
      direction 0.000000 0.000000 0.000000
      length 0.000000
      axis 0.0 0.0 90.0 xyz
      dof rx ry rz
   end
   begin
      id 20
      name RightHand_dum1
      direction 0.000000 0.000000 0.000000
      length 0.000000
      axis 0.0 0.0 90.0 xyz
   end
   begin
      id 21
      name RightHand_dum2
      direction -1.000000 0.000000 0.000000
      length 3.937000
      axis 0.0 0.0 90.0 xyz
   end
   begin
      id 22
      name RightHandThumb1
      direction 0.000000 0.000000 1.000000
      length 3.937000
      axis 0.0 0.0 90.0 xyz
      dof rx rz ry
   end
   begin
      id 23
      name LeftUpLeg
      direction 0.000000 -1.000000 0.000000
      length 16.899758
      axis 0.0 0.0 0.0 xyz
      dof rx ry rz
   end
   begin
      id 24
      name LeftLeg
      direction 0.000000 -1.000000 0.000000
      length 17.389183
      axis 0.0 0.0 0.0 xyz
      dof rx ry rz
   end
   begin
      id 25
      name LeftFoot
      direction 0.000000 -0.258819 0.965926
      length 4.924528
      axis 15.0 0.0 0.0 xyz
      dof rx ry rz
   end
   begin
      id 26
      name LeftToeBase
      direction 0.000000 0.000000 1.000000
      length 2.952750
      axis 0.0 0.0 0.0 xyz
      dof rx ry rz
   end
   begin
      id 27
      name RightUpLeg
      direction 0.000000 -1.000000 0.000000
      length 16.899758
      axis 0.0 0.0 0.0 xyz
      dof rx ry rz
   end
   begin
      id 28
      name RightLeg
      direction 0.000000 -1.000000 0.000000
      length 17.389183
      axis 0.0 0.0 0.0 xyz
      dof rx ry rz
   end
   begin
      id 29
      name RightFoot
      direction 0.000000 -0.258819 0.965926
      length 4.924528
      axis 15.0 0.0 0.0 xyz
      dof rx ry rz
   end
   begin
      id 30
      name RightToeBase
      direction 0.000000 0.000000 1.000000
      length 2.952750
      axis 0.0 0.0 0.0 xyz
      dof rx ry rz
   end
:hierarchy
   begin
      root Spine_dum LeftUpLeg_dum RightUpLeg_dum
      Spine_dum Spine
      LeftUpLeg_dum LeftUpLeg
      RightUpLeg_dum RightUpLeg
      Spine Spine_dum1 Spine_dum2 Spine_dum3
      Spine_dum1 Head
      Spine_dum2 LeftShoulder
      Spine_dum3 RightShoulder
      LeftShoulder LeftArm
      LeftArm LeftForeArm
      LeftForeArm LeftHand
      LeftHand LeftHand_dum1 LeftHand_dum2
      LeftHand_dum1 LeftHandThumb1
      RightShoulder RightArm
      RightArm RightForeArm
      RightForeArm RightHand
      RightHand RightHand_dum1 RightHand_dum2
      RightHand_dum1 RightHandThumb1
      LeftUpLeg LeftLeg
      LeftLeg LeftFoot
      LeftFoot LeftToeBase
      RightUpLeg RightLeg
      RightLeg RightFoot
      RightFoot RightToeBase
   end

# File created by Blade
# Date/Time:  Wed Jan 21 16:14:13 2015
# Frame Rate: 120.000 fps
#------------------------------------------------------
:FULLY-SPECIFIED
:DEGREES
45
root 18.410431 35.548973 -20.098125 -170.322666 -0.882456 -179.073615
Spine -18.594786 0.759141 0.557824
Head 9.415355 -1.044199 -0.366135
LeftShoulder -10.307201 -33.775550 18.819791
LeftArm -0.527672 4.855175 -10.781849
LeftForeArm 8.638710 0.000000 -3.725928
LeftHand -7.724349 0.000000 -6.513007
LeftHandThumb1 -26.253704 0.000000 33.147579
RightShoulder -10.640275 -5.106615 -11.234802
RightArm 7.163171 34.421613 14.188084
RightForeArm -35.048117 -0.000000 2.736859
RightHand -5.613821 -0.000000 9.848146
RightHandThumb1 -24.326973 -0.000000 -32.862282
LeftUpLeg -1.802131 9.183266 -0.658582
LeftLeg -5.574870 -0.000000 0.000000
LeftFoot -21.043269 25.874443 -12.261575
LeftToeBase 26.532953 -0.000000 -0.000000
RightUpLeg -3.207103 -5.473864 1.442382
RightLeg -2.721862 -0.000000 0.000000
RightFoot -21.199900 -27.768262 13.312138
RightToeBase 24.113247 -0.000000 -0.000000
46
root 18.411113 35.549773 -20.101032 -170.344406 -0.913664 -179.082018
Spine -18.625243 0.716250 0.570749
Head 9.495370 -0.992396 -0.396827
LeftShoulder -10.294530 -33.855810 18.882990
LeftArm -0.415049 4.732368 -10.690131
LeftForeArm 8.590823 -0.000000 -3.917221
LeftHand -7.702633 0.000000 -6.632432
LeftHandThumb1 -26.253704 0.000000 33.147579
RightShoulder -10.629803 -4.904457 -11.284625
RightArm 7.213353 34.482867 13.993076
RightForeArm -35.039638 -0.000000 2.549395
RightHand -5.601570 -0.000000 10.134341
RightHandThumb1 -24.326973 -0.000000 -32.862282
LeftUpLeg -1.774029 9.149958 -0.655734
LeftLeg -5.589393 -0.000000 0.000000
LeftFoot -21.015264 25.896028 -12.256055
LeftToeBase 26.282335 -0.000000 -0.000000
RightUpLeg -3.166772 -5.521934 1.439138
RightLeg -2.744099 -0.000000 0.000000
RightFoot -21.200657 -27.749749 13.342451
RightToeBase 24.085285 -0.000000 -0.000000
47
root 18.411139 35.550514 -20.102797 -170.365060 -0.941186 -179.086337
Spine -18.657704 0.686182 0.577821
Head 9.564206 -0.969871 -0.384026
LeftShoulder -10.297429 -33.914076 18.971641
LeftArm -0.238803 4.437302 -10.602399
LeftForeArm 8.729205 -0.000000 -4.112836
LeftHand -7.697601 -0.000000 -6.793338
LeftHandThumb1 -26.253704 0.000000 33.147579
RightShoulder -10.599248 -4.789006 -11.381864
RightArm 7.230567 34.670337 13.856480
RightForeArm -35.099965 -0.000000 2.449722
RightHand -5.468815 -0.000000 10.530169
RightHandThumb1 -24.326973 -0.000000 -32.862282
LeftUpLeg -1.751940 9.115089 -0.652869
LeftLeg -5.585738 -0.000000 0.000000
LeftFoot -21.004815 25.890777 -12.259655
LeftToeBase 26.508053 -0.000000 -0.000000
RightUpLeg -3.132145 -5.570589 1.438648
RightLeg -2.764093 -0.000000 0.000000
RightFoot -21.188786 -27.744880 13.334311
RightToeBase 24.127654 -0.000000 -0.000000
48
root 18.411482 35.551477 -20.103462 -170.383986 -0.954881 -179.090788
Spine -18.688386 0.654466 0.588482
Head 9.634416 -0.917579 -0.386810
LeftShoulder -10.299431 -34.028541 19.073085
LeftArm -0.060161 4.242199 -10.485882
LeftForeArm 8.685765 -0.000000 -4.331923
LeftHand -7.643307 -0.000000 -7.006587
LeftHandThumb1 -26.253704 0.000000 33.147579
RightShoulder -10.563920 -4.667316 -11.511431
RightArm 7.268215 34.702787 13.715232
RightForeArm -35.038757 -0.000000 2.298792
RightHand -5.284416 -0.000000 10.804109
RightHandThumb1 -24.326973 -0.000000 -32.862282
LeftUpLeg -1.730748 9.081861 -0.649692
LeftLeg -5.588549 -0.000000 0.000000
LeftFoot -20.996455 25.908439 -12.270670
LeftToeBase 26.486821 -0.000000 -0.000000
RightUpLeg -3.105412 -5.579278 1.434101
RightLeg -2.771799 -0.000000 0.000000
RightFoot -21.192463 -27.747407 13.353998
RightToeBase 24.116317 -0.000000 -0.000000
49
root 18.411132 35.552588 -20.104123 -170.408427 -0.947753 -179.094743
Spine -18.719787 0.654861 0.597841
Head 9.713165 -0.865508 -0.398851
LeftShoulder -10.283382 -34.203801 19.148731
LeftArm 0.135359 4.063741 -10.293534
LeftForeArm 8.603343 -0.000000 -4.473935
LeftHand -7.725591 -0.000000 -7.255702
LeftHandThumb1 -26.253704 0.000000 33.147579
RightShoulder -10.520236 -4.645802 -11.584342
RightArm 7.328933 35.243213 13.539623
RightForeArm -35.319414 -0.000000 2.206195
RightHand -5.345183 0.000000 11.044641
RightHandThumb1 -24.326973 -0.000000 -32.862282
LeftUpLeg -1.702920 9.099665 -0.653197
LeftLeg -5.598458 -0.000000 0.000000
LeftFoot -20.968959 25.927655 -12.255360
LeftToeBase 26.221689 -0.000000 -0.000000
RightUpLeg -3.077380 -5.566421 1.424821
RightLeg -2.776756 -0.000000 0.000000
RightFoot -21.181388 -27.730116 13.380321
RightToeBase 24.041647 -0.000000 -0.000000
50
root 18.411644 35.553090 -20.106954 -170.462627 -0.934780 -179.096700
Spine -18.716489 0.673577 0.592623
Head 9.789417 -0.853027 -0.396048
LeftShoulder -10.294179 -34.400446 19.260383
LeftArm 0.406600 3.758636 -10.095145
LeftForeArm 8.561420 -0.000000 -4.624950
LeftHand -7.802538 0.000000 -7.424656
LeftHandThumb1 -26.253704 0.000000 33.147579
RightShoulder -10.486086 -4.516703 -11.724625
RightArm 7.345967 35.362919 13.342081
RightForeArm -35.279768 -0.000000 2.093793
RightHand -5.369287 -0.000000 11.458145
RightHandThumb1 -24.326973 -0.000000 -32.862282
LeftUpLeg -1.631813 9.099696 -0.645892
LeftLeg -5.612128 -0.000000 0.000000
LeftFoot -20.969741 25.913372 -12.292406
LeftToeBase 26.435694 -0.000000 -0.000000
RightUpLeg -3.018066 -5.569220 1.417776
RightLeg -2.779381 -0.000000 0.000000
RightFoot -21.195374 -27.707225 13.409499
RightToeBase 24.067466 -0.000000 -0.000000
51
root 18.412018 35.553726 -20.109786 -170.480914 -0.914989 -179.100599
Spine -18.772628 0.689411 0.577712
Head 9.854909 -0.829803 -0.355989
LeftShoulder -10.345920 -34.706586 19.456523
LeftArm 0.715750 3.433775 -9.896861
LeftForeArm 8.487896 -0.000000 -4.798694
LeftHand -7.898712 -0.000000 -7.454043
LeftHandThumb1 -26.253704 0.000000 33.147579
RightShoulder -10.424199 -4.484129 -11.830275
RightArm 7.370036 35.688259 13.081273
RightForeArm -35.253823 -0.000000 1.975116
RightHand -5.169513 -0.000000 11.995289
RightHandThumb1 -24.326973 -0.000000 -32.862282
LeftUpLeg -1.602401 9.126920 -0.648453
LeftLeg -5.619437 -0.000000 0.000000
LeftFoot -20.941444 25.906868 -12.270411
LeftToeBase 26.450322 -0.000000 -0.000000
RightUpLeg -2.995855 -5.542189 1.408919
RightLeg -2.780438 -0.000000 0.000000
RightFoot -21.202501 -27.717774 13.425110
RightToeBase 24.047886 -0.000000 -0.000000
52
root 18.412323 35.555021 -20.114445 -170.497910 -0.890690 -179.104099
Spine -18.844292 0.727042 0.572325
Head 9.968797 -0.842112 -0.376319
LeftShoulder -10.396245 -34.989963 19.613477
LeftArm 1.089731 2.916260 -9.641125
LeftForeArm 8.467492 -0.000000 -4.885034
LeftHand -7.990196 -0.000000 -7.541849
LeftHandThumb1 -26.253704 0.000000 33.147579
RightShoulder -10.340459 -4.318392 -11.992298
RightArm 7.334731 35.956081 12.768277
RightForeArm -35.343003 -0.000000 1.836788
RightHand -5.217125 -0.000000 12.232560
RightHandThumb1 -24.326973 -0.000000 -32.862282
LeftUpLeg -1.564545 9.160291 -0.652632
LeftLeg -5.640249 -0.000000 0.000000
LeftFoot -20.920278 25.896596 -12.274840
LeftToeBase 26.447453 -0.000000 -0.000000
RightUpLeg -2.970002 -5.507225 1.399186
RightLeg -2.788449 -0.000000 0.000000
RightFoot -21.196969 -27.720143 13.442368
RightToeBase 24.067354 -0.000000 -0.000000
53
root 18.413154 35.556358 -20.117991 -170.514026 -0.897277 -179.110229
Spine -18.917750 0.748223 0.563282
Head 10.078868 -0.912921 -0.409896
LeftShoulder -10.414599 -35.350223 19.763271
LeftArm 1.468677 2.420091 -9.324926
LeftForeArm 8.461206 -0.000000 -4.885720
LeftHand -8.113408 -0.000000 -7.602080
LeftHandThumb1 -26.253704 0.000000 33.147579
RightShoulder -10.318190 -4.159225 -12.191360
RightArm 7.398785 36.378825 12.525942
RightForeArm -35.440189 -0.000000 1.691898
RightHand -5.147045 -0.000000 12.556498
RightHandThumb1 -24.326973 -0.000000 -32.862282
LeftUpLeg -1.537643 9.142823 -0.651565
LeftLeg -5.649303 -0.000000 0.000000
LeftFoot -20.912318 25.905319 -12.316398
LeftToeBase 26.412240 -0.000000 -0.000000
RightUpLeg -2.945977 -5.526495 1.394704
RightLeg -2.790031 -0.000000 0.000000
RightFoot -21.199983 -27.699547 13.475592
RightToeBase 24.038069 -0.000000 -0.000000
54
root 18.414112 35.556971 -20.121754 -170.524846 -0.912445 -179.119488
Spine -19.004101 0.787610 0.538112
Head 10.205014 -0.975488 -0.432871
LeftShoulder -10.396257 -35.759090 19.928785
LeftArm 1.880590 1.964998 -8.985465
LeftForeArm 8.293019 -0.000000 -4.876718
LeftHand -8.189681 -0.000000 -7.709133
LeftHandThumb1 -26.253704 0.000000 33.147579
RightShoulder -10.270040 -3.945985 -12.404780
RightArm 7.356171 36.914859 12.184474
RightForeArm -35.609935 -0.000000 1.602706
RightHand -5.048008 -0.000000 13.029223
RightHandThumb1 -24.326973 -0.000000 -32.862282
LeftUpLeg -1.521576 9.125879 -0.654350
LeftLeg -5.652058 -0.000000 0.000000
LeftFoot -20.903915 25.915261 -12.321338
LeftToeBase 26.368510 -0.000000 -0.000000
RightUpLeg -2.924422 -5.519961 1.386807
RightLeg -2.795090 -0.000000 0.000000
RightFoot -21.211452 -27.717992 13.493713
RightToeBase 24.052625 -0.000000 -0.000000
